<mxfile host="app.diagrams.net" agent="Mozilla/5.0 (X11; Linux x86_64) AppleWebKit/537.36 (KHTML, like Gecko) Chrome/133.0.0.0 Safari/537.36" version="26.0.11">
  <diagram name="Page-1" id="kKHpir4O-wVjDM-xojcb">
    <mxGraphModel dx="845" dy="670" grid="1" gridSize="10" guides="1" tooltips="1" connect="1" arrows="1" fold="1" page="1" pageScale="1" pageWidth="850" pageHeight="1100" math="0" shadow="0">
      <root>
        <mxCell id="0" />
        <mxCell id="1" parent="0" />
        <mxCell id="nrVpLFsN9AzKckAbSTYe-1" value="Channel" style="ellipse;whiteSpace=wrap;html=1;aspect=fixed;fillColor=#0000FF;strokeColor=#6F0000;fillStyle=cross-hatch;fontColor=#212121;" vertex="1" parent="1">
          <mxGeometry x="445" y="360" width="80" height="80" as="geometry" />
        </mxCell>
        <mxCell id="nrVpLFsN9AzKckAbSTYe-2" value="animator" style="ellipse;whiteSpace=wrap;html=1;aspect=fixed;fillStyle=cross-hatch;fillColor=#212121;strokeColor=#000000;" vertex="1" parent="1">
          <mxGeometry x="805" y="360" width="80" height="80" as="geometry" />
        </mxCell>
        <mxCell id="nrVpLFsN9AzKckAbSTYe-9" style="edgeStyle=orthogonalEdgeStyle;rounded=0;orthogonalLoop=1;jettySize=auto;html=1;exitX=0;exitY=0.5;exitDx=0;exitDy=0;exitPerimeter=0;entryX=1;entryY=1;entryDx=0;entryDy=0;" edge="1" parent="1" source="nrVpLFsN9AzKckAbSTYe-5" target="nrVpLFsN9AzKckAbSTYe-1">
          <mxGeometry relative="1" as="geometry">
            <Array as="points">
              <mxPoint x="560" y="500" />
              <mxPoint x="560" y="428" />
            </Array>
          </mxGeometry>
        </mxCell>
        <mxCell id="nrVpLFsN9AzKckAbSTYe-5" value="{send log}" style="shape=note;whiteSpace=wrap;html=1;backgroundOutline=1;darkOpacity=0.05;size=11;fillColor=#bac8d3;strokeColor=#23445d;" vertex="1" parent="1">
          <mxGeometry x="605" y="480" width="120" height="40" as="geometry" />
        </mxCell>
        <mxCell id="nrVpLFsN9AzKckAbSTYe-10" style="edgeStyle=orthogonalEdgeStyle;rounded=0;orthogonalLoop=1;jettySize=auto;html=1;exitX=0;exitY=0.5;exitDx=0;exitDy=0;exitPerimeter=0;entryX=1;entryY=1;entryDx=0;entryDy=0;" edge="1" parent="1" source="nrVpLFsN9AzKckAbSTYe-6" target="nrVpLFsN9AzKckAbSTYe-1">
          <mxGeometry relative="1" as="geometry">
            <mxPoint x="550" y="450" as="targetPoint" />
            <Array as="points">
              <mxPoint x="560" y="560" />
              <mxPoint x="560" y="428" />
            </Array>
          </mxGeometry>
        </mxCell>
        <mxCell id="nrVpLFsN9AzKckAbSTYe-6" value="{send control}" style="shape=note;whiteSpace=wrap;html=1;backgroundOutline=1;darkOpacity=0.05;size=11;fillColor=#bac8d3;strokeColor=#23445d;" vertex="1" parent="1">
          <mxGeometry x="605" y="540" width="120" height="40" as="geometry" />
        </mxCell>
        <mxCell id="nrVpLFsN9AzKckAbSTYe-7" style="edgeStyle=orthogonalEdgeStyle;rounded=0;orthogonalLoop=1;jettySize=auto;html=1;exitX=0;exitY=1;exitDx=0;exitDy=0;entryX=0;entryY=0;entryDx=120;entryDy=25.5;entryPerimeter=0;endArrow=none;startFill=0;" edge="1" parent="1" source="nrVpLFsN9AzKckAbSTYe-2" target="nrVpLFsN9AzKckAbSTYe-6">
          <mxGeometry relative="1" as="geometry" />
        </mxCell>
        <mxCell id="nrVpLFsN9AzKckAbSTYe-8" style="edgeStyle=orthogonalEdgeStyle;rounded=0;orthogonalLoop=1;jettySize=auto;html=1;exitX=0;exitY=1;exitDx=0;exitDy=0;entryX=0;entryY=0;entryDx=120;entryDy=25.5;entryPerimeter=0;endArrow=none;startFill=0;" edge="1" parent="1" source="nrVpLFsN9AzKckAbSTYe-2" target="nrVpLFsN9AzKckAbSTYe-5">
          <mxGeometry relative="1" as="geometry" />
        </mxCell>
        <mxCell id="nrVpLFsN9AzKckAbSTYe-11" value="{buffer draw}" style="shape=note;whiteSpace=wrap;html=1;backgroundOutline=1;darkOpacity=0.05;size=11;fillColor=#bac8d3;strokeColor=#23445d;" vertex="1" parent="1">
          <mxGeometry x="605" y="600" width="120" height="40" as="geometry" />
        </mxCell>
        <mxCell id="nrVpLFsN9AzKckAbSTYe-13" value="buffer" style="shape=cylinder3;whiteSpace=wrap;html=1;boundedLbl=1;backgroundOutline=1;size=15;fillColor=#1ba1e2;fontColor=#ffffff;strokeColor=#006EAF;" vertex="1" parent="1">
          <mxGeometry x="455" y="480" width="60" height="80" as="geometry" />
        </mxCell>
        <mxCell id="nrVpLFsN9AzKckAbSTYe-14" style="edgeStyle=orthogonalEdgeStyle;rounded=0;orthogonalLoop=1;jettySize=auto;html=1;exitX=0;exitY=0.5;exitDx=0;exitDy=0;exitPerimeter=0;entryX=1;entryY=0.5;entryDx=0;entryDy=0;entryPerimeter=0;" edge="1" parent="1" source="nrVpLFsN9AzKckAbSTYe-11" target="nrVpLFsN9AzKckAbSTYe-13">
          <mxGeometry relative="1" as="geometry">
            <Array as="points">
              <mxPoint x="545" y="620" />
              <mxPoint x="545" y="520" />
            </Array>
          </mxGeometry>
        </mxCell>
        <mxCell id="nrVpLFsN9AzKckAbSTYe-15" value="" style="endArrow=none;html=1;rounded=0;entryX=0.5;entryY=1;entryDx=0;entryDy=0;exitX=0.5;exitY=0;exitDx=0;exitDy=0;exitPerimeter=0;" edge="1" parent="1" source="nrVpLFsN9AzKckAbSTYe-13" target="nrVpLFsN9AzKckAbSTYe-1">
          <mxGeometry width="50" height="50" relative="1" as="geometry">
            <mxPoint x="685" y="570" as="sourcePoint" />
            <mxPoint x="735" y="520" as="targetPoint" />
          </mxGeometry>
        </mxCell>
        <mxCell id="nrVpLFsN9AzKckAbSTYe-16" value="{send log}" style="shape=note;whiteSpace=wrap;html=1;backgroundOutline=1;darkOpacity=0.05;size=11;fillColor=#e1d5e7;strokeColor=#9673a6;" vertex="1" parent="1">
          <mxGeometry x="280" y="540" width="120" height="45" as="geometry" />
        </mxCell>
        <mxCell id="nrVpLFsN9AzKckAbSTYe-17" style="edgeStyle=orthogonalEdgeStyle;rounded=0;orthogonalLoop=1;jettySize=auto;html=1;exitX=0;exitY=0.5;exitDx=0;exitDy=0;entryX=0;entryY=0;entryDx=120;entryDy=25.5;entryPerimeter=0;" edge="1" parent="1" source="nrVpLFsN9AzKckAbSTYe-1" target="nrVpLFsN9AzKckAbSTYe-16">
          <mxGeometry relative="1" as="geometry" />
        </mxCell>
        <mxCell id="nrVpLFsN9AzKckAbSTYe-18" value="{send draw}" style="shape=note;whiteSpace=wrap;html=1;backgroundOutline=1;darkOpacity=0.05;size=11;fillColor=#e1d5e7;strokeColor=#9673a6;" vertex="1" parent="1">
          <mxGeometry x="280" y="600" width="120" height="40" as="geometry" />
        </mxCell>
        <mxCell id="nrVpLFsN9AzKckAbSTYe-19" style="edgeStyle=orthogonalEdgeStyle;rounded=0;orthogonalLoop=1;jettySize=auto;html=1;exitX=0;exitY=0.5;exitDx=0;exitDy=0;entryX=0;entryY=0;entryDx=120;entryDy=25.5;entryPerimeter=0;" edge="1" parent="1" source="nrVpLFsN9AzKckAbSTYe-1" target="nrVpLFsN9AzKckAbSTYe-18">
          <mxGeometry relative="1" as="geometry" />
        </mxCell>
        <mxCell id="nrVpLFsN9AzKckAbSTYe-22" value="Channel&lt;div&gt;Name&lt;/div&gt;" style="shape=card;whiteSpace=wrap;html=1;size=20;fillColor=#dae8fc;strokeColor=#6c8ebf;" vertex="1" parent="1">
          <mxGeometry x="80" y="220" width="80" height="40" as="geometry" />
        </mxCell>
        <mxCell id="nrVpLFsN9AzKckAbSTYe-23" value="Channel&lt;div&gt;List&lt;/div&gt;" style="shape=card;whiteSpace=wrap;html=1;size=20;fillColor=#dae8fc;strokeColor=#6c8ebf;" vertex="1" parent="1">
          <mxGeometry x="80" y="20" width="80" height="40" as="geometry" />
        </mxCell>
        <mxCell id="nrVpLFsN9AzKckAbSTYe-24" value="Channel&lt;div&gt;Join&lt;/div&gt;" style="shape=card;whiteSpace=wrap;html=1;size=20;fillColor=#dae8fc;strokeColor=#6c8ebf;" vertex="1" parent="1">
          <mxGeometry x="80" y="120" width="80" height="40" as="geometry" />
        </mxCell>
        <mxCell id="nrVpLFsN9AzKckAbSTYe-25" value="Channel&lt;div&gt;Start&lt;/div&gt;" style="shape=card;whiteSpace=wrap;html=1;size=20;fillColor=#dae8fc;strokeColor=#6c8ebf;" vertex="1" parent="1">
          <mxGeometry x="80" y="70" width="80" height="40" as="geometry" />
        </mxCell>
        <mxCell id="nrVpLFsN9AzKckAbSTYe-26" value="Channel&lt;div&gt;Leave&lt;/div&gt;" style="shape=card;whiteSpace=wrap;html=1;size=20;fillColor=#dae8fc;strokeColor=#6c8ebf;" vertex="1" parent="1">
          <mxGeometry x="80" y="170" width="80" height="40" as="geometry" />
        </mxCell>
        <mxCell id="nrVpLFsN9AzKckAbSTYe-27" value="Channel&lt;div&gt;Sub&lt;/div&gt;" style="shape=card;whiteSpace=wrap;html=1;size=20;fillColor=#dae8fc;strokeColor=#6c8ebf;" vertex="1" parent="1">
          <mxGeometry x="80" y="270" width="80" height="40" as="geometry" />
        </mxCell>
        <mxCell id="nrVpLFsN9AzKckAbSTYe-28" value="Channel&lt;div&gt;Subs&lt;/div&gt;" style="shape=card;whiteSpace=wrap;html=1;size=20;fillColor=#dae8fc;strokeColor=#6c8ebf;" vertex="1" parent="1">
          <mxGeometry x="80" y="320" width="80" height="40" as="geometry" />
        </mxCell>
        <mxCell id="nrVpLFsN9AzKckAbSTYe-29" value="Animator&lt;div&gt;List&lt;span style=&quot;white-space: pre;&quot;&gt;&#x9;&lt;/span&gt;&lt;/div&gt;" style="shape=card;whiteSpace=wrap;html=1;size=20;fillColor=#d5e8d4;strokeColor=#82b366;" vertex="1" parent="1">
          <mxGeometry x="80" y="370" width="80" height="40" as="geometry" />
        </mxCell>
        <mxCell id="nrVpLFsN9AzKckAbSTYe-30" value="Animator&lt;div&gt;Set&lt;/div&gt;" style="shape=card;whiteSpace=wrap;html=1;size=20;fillColor=#d5e8d4;strokeColor=#82b366;" vertex="1" parent="1">
          <mxGeometry x="80" y="470" width="80" height="40" as="geometry" />
        </mxCell>
        <mxCell id="nrVpLFsN9AzKckAbSTYe-31" value="Animator&lt;div&gt;Add&lt;/div&gt;" style="shape=card;whiteSpace=wrap;html=1;size=20;fillColor=#d5e8d4;strokeColor=#82b366;" vertex="1" parent="1">
          <mxGeometry x="80" y="420" width="80" height="40" as="geometry" />
        </mxCell>
        <mxCell id="nrVpLFsN9AzKckAbSTYe-33" value="" style="endArrow=none;html=1;rounded=0;" edge="1" parent="1">
          <mxGeometry width="50" height="50" relative="1" as="geometry">
            <mxPoint x="170" y="510" as="sourcePoint" />
            <mxPoint x="170" y="20" as="targetPoint" />
          </mxGeometry>
        </mxCell>
        <mxCell id="nrVpLFsN9AzKckAbSTYe-34" value="" style="endArrow=classic;html=1;rounded=0;entryX=0;entryY=0.5;entryDx=0;entryDy=0;" edge="1" parent="1" target="nrVpLFsN9AzKckAbSTYe-1">
          <mxGeometry width="50" height="50" relative="1" as="geometry">
            <mxPoint x="170" y="400" as="sourcePoint" />
            <mxPoint x="485" y="440" as="targetPoint" />
          </mxGeometry>
        </mxCell>
        <mxCell id="nrVpLFsN9AzKckAbSTYe-38" value="Web&lt;div&gt;Socket&lt;/div&gt;" style="ellipse;shape=cloud;whiteSpace=wrap;html=1;fillStyle=hatch;fillColor=#FF66B3;" vertex="1" parent="1">
          <mxGeometry x="40" y="560" width="120" height="80" as="geometry" />
        </mxCell>
        <mxCell id="nrVpLFsN9AzKckAbSTYe-39" style="edgeStyle=orthogonalEdgeStyle;rounded=1;orthogonalLoop=1;jettySize=auto;html=1;exitX=0;exitY=0.5;exitDx=0;exitDy=0;exitPerimeter=0;entryX=0.96;entryY=0.7;entryDx=0;entryDy=0;entryPerimeter=0;curved=0;" edge="1" parent="1" source="nrVpLFsN9AzKckAbSTYe-16" target="nrVpLFsN9AzKckAbSTYe-38">
          <mxGeometry relative="1" as="geometry" />
        </mxCell>
        <mxCell id="nrVpLFsN9AzKckAbSTYe-40" style="edgeStyle=orthogonalEdgeStyle;rounded=1;orthogonalLoop=1;jettySize=auto;html=1;exitX=0;exitY=0.5;exitDx=0;exitDy=0;exitPerimeter=0;entryX=0.96;entryY=0.7;entryDx=0;entryDy=0;entryPerimeter=0;curved=0;" edge="1" parent="1" source="nrVpLFsN9AzKckAbSTYe-18" target="nrVpLFsN9AzKckAbSTYe-38">
          <mxGeometry relative="1" as="geometry" />
        </mxCell>
        <mxCell id="nrVpLFsN9AzKckAbSTYe-45" style="edgeStyle=orthogonalEdgeStyle;rounded=0;orthogonalLoop=1;jettySize=auto;html=1;exitX=0;exitY=0;exitDx=120;exitDy=25.5;exitPerimeter=0;entryX=0;entryY=0;entryDx=0;entryDy=0;" edge="1" parent="1" source="nrVpLFsN9AzKckAbSTYe-41" target="nrVpLFsN9AzKckAbSTYe-2">
          <mxGeometry relative="1" as="geometry">
            <Array as="points">
              <mxPoint x="750" y="346" />
              <mxPoint x="750" y="372" />
            </Array>
          </mxGeometry>
        </mxCell>
        <mxCell id="nrVpLFsN9AzKckAbSTYe-41" value="{set, Field, Value}" style="shape=note;whiteSpace=wrap;html=1;backgroundOutline=1;darkOpacity=0.05;size=11;fillColor=#ffe6cc;strokeColor=#d79b00;" vertex="1" parent="1">
          <mxGeometry x="600" y="320" width="120" height="40" as="geometry" />
        </mxCell>
        <mxCell id="nrVpLFsN9AzKckAbSTYe-47" style="edgeStyle=orthogonalEdgeStyle;rounded=0;orthogonalLoop=1;jettySize=auto;html=1;exitX=0;exitY=0;exitDx=120;exitDy=25.5;exitPerimeter=0;entryX=0;entryY=0;entryDx=0;entryDy=0;" edge="1" parent="1" source="nrVpLFsN9AzKckAbSTYe-42" target="nrVpLFsN9AzKckAbSTYe-2">
          <mxGeometry relative="1" as="geometry">
            <Array as="points">
              <mxPoint x="750" y="406" />
              <mxPoint x="750" y="372" />
            </Array>
          </mxGeometry>
        </mxCell>
        <mxCell id="nrVpLFsN9AzKckAbSTYe-42" value="send_controls" style="shape=note;whiteSpace=wrap;html=1;backgroundOutline=1;darkOpacity=0.05;size=11;fillColor=#ffe6cc;strokeColor=#d79b00;" vertex="1" parent="1">
          <mxGeometry x="600" y="380" width="120" height="40" as="geometry" />
        </mxCell>
        <mxCell id="nrVpLFsN9AzKckAbSTYe-43" style="edgeStyle=orthogonalEdgeStyle;rounded=0;orthogonalLoop=1;jettySize=auto;html=1;exitX=1;exitY=0;exitDx=0;exitDy=0;entryX=0;entryY=0.5;entryDx=0;entryDy=0;entryPerimeter=0;" edge="1" parent="1" source="nrVpLFsN9AzKckAbSTYe-1" target="nrVpLFsN9AzKckAbSTYe-41">
          <mxGeometry relative="1" as="geometry" />
        </mxCell>
        <mxCell id="nrVpLFsN9AzKckAbSTYe-44" style="edgeStyle=orthogonalEdgeStyle;rounded=0;orthogonalLoop=1;jettySize=auto;html=1;exitX=1;exitY=0;exitDx=0;exitDy=0;entryX=0;entryY=0.5;entryDx=0;entryDy=0;entryPerimeter=0;endArrow=none;startFill=0;" edge="1" parent="1" source="nrVpLFsN9AzKckAbSTYe-1" target="nrVpLFsN9AzKckAbSTYe-42">
          <mxGeometry relative="1" as="geometry" />
        </mxCell>
        <mxCell id="nrVpLFsN9AzKckAbSTYe-48" style="edgeStyle=orthogonalEdgeStyle;rounded=0;orthogonalLoop=1;jettySize=auto;html=1;exitX=0;exitY=0.5;exitDx=0;exitDy=0;exitPerimeter=0;entryX=0;entryY=0;entryDx=120;entryDy=25.5;entryPerimeter=0;dashed=1;" edge="1" parent="1" source="nrVpLFsN9AzKckAbSTYe-13" target="nrVpLFsN9AzKckAbSTYe-18">
          <mxGeometry relative="1" as="geometry">
            <Array as="points">
              <mxPoint x="440" y="520" />
              <mxPoint x="440" y="626" />
            </Array>
          </mxGeometry>
        </mxCell>
        <mxCell id="nrVpLFsN9AzKckAbSTYe-49" style="edgeStyle=orthogonalEdgeStyle;rounded=0;orthogonalLoop=1;jettySize=auto;html=1;exitX=0;exitY=1;exitDx=0;exitDy=0;entryX=0;entryY=0;entryDx=120;entryDy=25.5;entryPerimeter=0;" edge="1" parent="1" source="nrVpLFsN9AzKckAbSTYe-2" target="nrVpLFsN9AzKckAbSTYe-11">
          <mxGeometry relative="1" as="geometry" />
        </mxCell>
      </root>
    </mxGraphModel>
  </diagram>
</mxfile>
